# xmcd CD database file
#
# Track frame offsets:
#	150
#	12623
#	37428
#	56213
#	76288
#	96218
#	112205
#	133133
#	162985
#	182835
#
# Disc length: 2759 seconds
#
# Revision: 1
# Processed by: cddbd v1.4PL0 Copyright (c) Steve Scherf et al.
# Submitted via: Feurio! 1.63 - http://www.feurio.com
#
DISCID=960ac50a
DTITLE=Simply Red - The Colour Red [CD 1)
DYEAR=1986
DGENRE=blues
TTITLE0=Grandma's Hand
TTITLE1=Sad Old Red
TTITLE2=Red Box
TTITLE3=The Right Thing
TTITLE4=No Direction
TTITLE5=Love For Sale
TTITLE6=Holding Back The Years
TTITLE7=Picture Book
TTITLE8=Love Fire
TTITLE9=Jericho
EXTD=Recorded Live in Montreux 1996
EXTT0=
EXTT1=
EXTT2=
EXTT3=
EXTT4=
EXTT5=
EXTT6=
EXTT7=
EXTT8=
EXTT9=
PLAYORDER=
